<?xml version="1.0" ?>
<!DOCTYPE svg PUBLIC '-//W3C//DTD SVG 1.1//EN' 'http://www.w3.org/Graphics/SVG/1.1/DTD/svg11.dtd'>
<svg style="enable-background:new 0 0 512 512;" version="1.1" viewBox="0 0 512 512" xml:space="preserve" xmlns="http://www.w3.org/2000/svg" xmlns:xlink="http://www.w3.org/1999/xlink">
  <g><g id="_x32_0-Search"/>
    <g id="_x31_9-Web_Page">
      <g><path
        d="M430.5,73h-349C60.271,73,43,90.271,43,111.5v289c0,21.229,17.271,38.5,38.5,38.5h349      c21.229,0,38.5-17.271,38.5-38.5v-289C469,90.271,451.729,73,430.5,73z M443,111.5v21.494h-93.898V99H430.5      C437.393,99,443,104.607,443,111.5z M81.5,99h241.602v33.994H69V111.5C69,104.607,74.607,99,81.5,99z M430.5,413h-349      c-6.893,0-12.5-5.607-12.5-12.5V158.994h374V400.5C443,407.393,437.393,413,430.5,413z"
        style="fill:#ae0010;"/><path
        d="M201.699,257.55c-4.741-2.086-10.371,0.281-12.195,5.244l-8.289,18.897l-3.622-8.519      c-3.086-7.602-14.204-7.682-17.405-0.016l-3.553,8.475l-8.284-18.884c-2.009-5.118-7.598-7.217-12.069-5.199      c-4.92,2.136-7.096,7.566-5.016,12.3c17.498,41.399,17.166,41.646,19.337,43.009c2.172,2.392,6.671,2.881,8.907,1.929      c5.13-1.258,7.354-9.079,9.427-14.129c2.401,5.689,5.412,17.328,14.825,14.205c1.716-0.241,4.79-2.328,6.085-5.361      l16.861-39.649C208.789,265.123,206.593,259.725,201.699,257.55z"
        style="fill:#ae0010;"/><path
        d="M288.718,257.55c-4.749-2.09-10.373,0.289-12.194,5.244l-8.289,18.897l-3.623-8.52      c-3.007-7.405-13.878-7.855-17.363-0.11c-0.014,0.032-0.028,0.063-0.041,0.095l-3.553,8.475l-8.284-18.884      c-2.009-5.118-7.598-7.217-12.069-5.199c-4.92,2.136-7.096,7.566-5.016,12.3c17.831,42.186,17.166,41.646,19.337,43.009      c1.229,1.353,3.479,2.195,4.615,2.245c8.794,1.594,10.862-7.483,13.719-14.445c2.416,5.727,5.409,17.324,14.826,14.205      c1.582-0.222,4.785-2.306,6.085-5.361l16.861-39.649C295.808,265.123,293.612,259.725,288.718,257.55z"
        style="fill:#ae0010;"/><path
        d="M375.735,257.55c-4.749-2.09-10.373,0.289-12.194,5.244l-8.289,18.897l-3.623-8.52      c-3.007-7.405-13.878-7.855-17.363-0.11c-0.014,0.032-0.028,0.063-0.041,0.095l-3.553,8.475l-8.284-18.884      c-2.009-5.118-7.598-7.217-12.069-5.199c-4.92,2.136-7.096,7.566-5.016,12.3c17.499,41.399,17.166,41.645,19.337,43.009      c2.299,2.533,8.358,3.833,12.336-0.169c1.993-1.576,2.26-2.921,5.998-12.032c2.427,5.752,5.403,17.326,14.826,14.205      c1.627-0.229,4.769-2.275,6.085-5.361l16.861-39.649C382.825,265.123,380.63,259.725,375.735,257.55z"
        style="fill:#ae0010;"/></g>
    </g><g id="_x31_8-Wifi"/><g id="_x31_7-Hotspot"/><g id="_x31_6-Satelite"/><g id="_x31_5-Receiver"/><g id="_x31_4-Receiver"/><g id="_x31_3-Receiver"/><g id="_x31_2-Ethernet"/><g id="_x31_1-Code"/><g id="_x31_0-Homegroup"/><g id="_x30_9-Sharing_Option"/><g id="_x30_8-Data"/><g id="_x30_7-Connectivity"/><g id="_x30_6-Computer"/><g id="_x30_5-Laptop"/><g id="_x30_4-Mobile"/><g id="_x30_3-Network"/><g id="_x30_2-Click"/><g id="_x30_1-Website"/></g>
</svg>